<?xml version="1.0" standalone="no"?>
<!DOCTYPE svg PUBLIC "-//W3C//DTD SVG 20010904//EN"
 "http://www.w3.org/TR/2001/REC-SVG-20010904/DTD/svg10.dtd">
<svg version="1.0" xmlns="http://www.w3.org/2000/svg"
 width="200.000000pt" height="200.000000pt" viewBox="0 0 200.000000 200.000000"
 preserveAspectRatio="xMidYMid meet">
<metadata>
Created by potrace 1.11, written by Peter Selinger 2001-2013
</metadata>
<g transform="translate(0.000000,200.000000) scale(0.100000,-0.100000)"
fill="#000000" stroke="none">
<path d="M453 1815 c-76 -21 -122 -48 -169 -97 -70 -72 -79 -98 -79 -219 0
-101 1 -108 37 -180 38 -77 74 -123 271 -354 132 -156 162 -203 184 -292 30
-121 -11 -245 -96 -290 -80 -42 -244 -27 -324 29 -15 11 -34 17 -42 14 -8 -3
-22 -30 -31 -61 -13 -47 -14 -62 -3 -87 27 -66 139 -108 289 -108 244 0 367
99 407 330 27 153 -7 307 -96 430 -17 24 -89 109 -161 190 -195 220 -230 272
-245 357 -5 31 -2 53 14 88 17 38 29 50 73 70 70 33 213 35 298 5 72 -25 77
-25 95 10 37 71 11 124 -75 156 -64 23 -277 29 -347 9z"/>
<path d="M1028 1803 c-15 -4 -18 -17 -18 -89 l0 -84 155 0 155 0 0 -721 0
-721 85 3 c62 3 88 8 95 19 6 9 10 292 10 718 l0 702 148 0 c102 0 152 4 160
12 7 7 12 43 12 90 l0 78 -392 -1 c-216 -1 -401 -3 -410 -6z"/>
</g>
</svg>
